<svg width="120" height="120" viewBox="0 0 120 120" fill="none" xmlns="http://www.w3.org/2000/svg">
<rect width="120" height="120" rx="60" fill="white"/>
<path d="M46 70H44C42.9391 70 41.9217 69.5786 41.1716 68.8284C40.4214 68.0783 40 67.0609 40 66V46C40 44.9391 40.4214 43.9217 41.1716 43.1716C41.9217 42.4214 42.9391 42 44 42H76C77.0609 42 78.0783 42.4214 78.8284 43.1716C79.5786 43.9217 80 44.9391 80 46V66C80 67.0609 79.5786 68.0783 78.8284 68.8284C78.0783 69.5786 77.0609 70 76 70H74" stroke="#21D8E3" stroke-width="4" stroke-linecap="round" stroke-linejoin="round"/>
<path d="M60 66L70 78H50L60 66Z" stroke="#21D8E3" stroke-width="4" stroke-linecap="round" stroke-linejoin="round"/>
</svg>
