<svg width="220" height="220" viewBox="0 0 220 220" fill="none" xmlns="http://www.w3.org/2000/svg">
<g filter="url(#filter0_d)">
<rect x="32" y="32" width="120" height="120" rx="60" fill="white"/>
</g>
<path d="M78 102H76C74.9391 102 73.9217 101.579 73.1716 100.828C72.4214 100.078 72 99.0609 72 98V78C72 76.9391 72.4214 75.9217 73.1716 75.1716C73.9217 74.4214 74.9391 74 76 74H108C109.061 74 110.078 74.4214 110.828 75.1716C111.579 75.9217 112 76.9391 112 78V98C112 99.0609 111.579 100.078 110.828 100.828C110.078 101.579 109.061 102 108 102H106" stroke="#21D8E3" stroke-width="4" stroke-linecap="round" stroke-linejoin="round"/>
<path d="M92 98L102 110H82L92 98Z" stroke="#21D8E3" stroke-width="4" stroke-linecap="round" stroke-linejoin="round"/>
<defs>
<filter id="filter0_d" x="0" y="0" width="220" height="220" filterUnits="userSpaceOnUse" color-interpolation-filters="sRGB">
<feFlood flood-opacity="0" result="BackgroundImageFix"/>
<feColorMatrix in="SourceAlpha" type="matrix" values="0 0 0 0 0 0 0 0 0 0 0 0 0 0 0 0 0 0 127 0"/>
<feOffset dx="18" dy="18"/>
<feGaussianBlur stdDeviation="25"/>
<feColorMatrix type="matrix" values="0 0 0 0 0 0 0 0 0 0 0 0 0 0 0 0 0 0 0.05 0"/>
<feBlend mode="normal" in2="BackgroundImageFix" result="effect1_dropShadow"/>
<feBlend mode="normal" in="SourceGraphic" in2="effect1_dropShadow" result="shape"/>
</filter>
</defs>
</svg>
