<svg width="220" height="220" viewBox="0 0 220 220" fill="none" xmlns="http://www.w3.org/2000/svg">
<g filter="url(#filter0_d)">
<rect x="32" y="32" width="120" height="120" rx="60" fill="white"/>
</g>
<path d="M102.235 69.4091H64.1666V102.401H102.235V69.4091Z" stroke="#5F5FFE" stroke-width="4" stroke-linecap="round" stroke-linejoin="round"/>
<path d="M102.235 82.0985H112.386L120 89.7121V102.402H102.235V82.0985Z" stroke="#5F5FFE" stroke-width="4" stroke-linecap="round" stroke-linejoin="round"/>
<path d="M75.5871 115.091C79.0912 115.091 81.9318 112.25 81.9318 108.746C81.9318 105.242 79.0912 102.401 75.5871 102.401C72.083 102.401 69.2424 105.242 69.2424 108.746C69.2424 112.25 72.083 115.091 75.5871 115.091Z" stroke="#5F5FFE" stroke-width="4" stroke-linecap="round" stroke-linejoin="round"/>
<path d="M108.579 115.091C112.084 115.091 114.924 112.25 114.924 108.746C114.924 105.242 112.084 102.401 108.579 102.401C105.075 102.401 102.235 105.242 102.235 108.746C102.235 112.25 105.075 115.091 108.579 115.091Z" stroke="#5F5FFE" stroke-width="4" stroke-linecap="round" stroke-linejoin="round"/>
<defs>
<filter id="filter0_d" x="0" y="0" width="220" height="220" filterUnits="userSpaceOnUse" color-interpolation-filters="sRGB">
<feFlood flood-opacity="0" result="BackgroundImageFix"/>
<feColorMatrix in="SourceAlpha" type="matrix" values="0 0 0 0 0 0 0 0 0 0 0 0 0 0 0 0 0 0 127 0"/>
<feOffset dx="18" dy="18"/>
<feGaussianBlur stdDeviation="25"/>
<feColorMatrix type="matrix" values="0 0 0 0 0 0 0 0 0 0 0 0 0 0 0 0 0 0 0.05 0"/>
<feBlend mode="normal" in2="BackgroundImageFix" result="effect1_dropShadow"/>
<feBlend mode="normal" in="SourceGraphic" in2="effect1_dropShadow" result="shape"/>
</filter>
</defs>
</svg>
