<svg width="120" height="120" viewBox="0 0 120 120" fill="none" xmlns="http://www.w3.org/2000/svg">
<rect width="120" height="120" rx="60" fill="white"/>
<path d="M70.2348 37.4091H32.1666V70.4015H70.2348V37.4091Z" stroke="#5F5FFE" stroke-width="4" stroke-linecap="round" stroke-linejoin="round"/>
<path d="M70.2347 50.0985H80.3862L87.9999 57.7121V70.4015H70.2347V50.0985Z" stroke="#5F5FFE" stroke-width="4" stroke-linecap="round" stroke-linejoin="round"/>
<path d="M43.5871 83.0908C47.0912 83.0908 49.9318 80.2501 49.9318 76.7461C49.9318 73.242 47.0912 70.4014 43.5871 70.4014C40.083 70.4014 37.2424 73.242 37.2424 76.7461C37.2424 80.2501 40.083 83.0908 43.5871 83.0908Z" stroke="#5F5FFE" stroke-width="4" stroke-linecap="round" stroke-linejoin="round"/>
<path d="M76.5794 83.0908C80.0835 83.0908 82.9241 80.2501 82.9241 76.7461C82.9241 73.242 80.0835 70.4014 76.5794 70.4014C73.0754 70.4014 70.2347 73.242 70.2347 76.7461C70.2347 80.2501 73.0754 83.0908 76.5794 83.0908Z" stroke="#5F5FFE" stroke-width="4" stroke-linecap="round" stroke-linejoin="round"/>
</svg>
